<svg fill="#000000" xmlns="http://www.w3.org/2000/svg"  viewBox="0 0 50 50" width="512px" height="512px"><path d="M 14 3.9902344 C 8.4886661 3.9902344 4 8.4789008 4 13.990234 L 4 35.990234 C 4 41.501568 8.4886661 45.990234 14 45.990234 L 36 45.990234 C 41.511334 45.990234 46 41.501568 46 35.990234 L 46 13.990234 C 46 8.4789008 41.511334 3.9902344 36 3.9902344 L 14 3.9902344 z M 14 5.9902344 L 36 5.9902344 C 40.430666 5.9902344 44 9.5595687 44 13.990234 L 44 35.990234 C 44 40.4209 40.430666 43.990234 36 43.990234 L 14 43.990234 C 9.5693339 43.990234 6 40.4209 6 35.990234 L 6 13.990234 C 6 9.5595687 9.5693339 5.9902344 14 5.9902344 z M 24.453125 11.177734 C 22.054687 11.335439 20 13.163047 20 16.154297 C 20 20.312297 23.264813 24.940812 29.007812 27.882812 C 29.312812 28.038812 29.686187 28.038813 29.992188 27.882812 C 35.735187 24.941812 39 20.313297 39 16.154297 C 39 11.368297 33.739516 9.5595937 30.228516 12.808594 C 29.815516 13.191594 29.184484 13.191594 28.771484 12.808594 C 27.454484 11.590219 25.892188 11.083111 24.453125 11.177734 z"/></svg>